<?xml version="1.0" standalone="no"?>
<!DOCTYPE svg PUBLIC "-//W3C//DTD SVG 20010904//EN"
 "http://www.w3.org/TR/2001/REC-SVG-20010904/DTD/svg10.dtd">
<svg version="1.0" xmlns="http://www.w3.org/2000/svg"
 width="540.000000pt" height="540.000000pt" viewBox="0 0 540.000000 540.000000"
 preserveAspectRatio="xMidYMid meet">

<g transform="translate(0.000000,540.000000) scale(0.100000,-0.100000)"
fill="#000000" stroke="none">
<path d="M2500 5390 c-364 -29 -692 -121 -1015 -285 -271 -137 -478 -286 -691
-499 -213 -213 -362 -420 -499 -691 -246 -486 -339 -1021 -269 -1557 100 -774
527 -1462 1178 -1898 121 -81 369 -214 379 -203 4 3 7 2 7 -4 0 -6 9 -9 22 -5
15 4 19 2 13 -7 -6 -10 -3 -11 14 -2 11 7 21 19 21 28 0 13 3 14 12 5 14 -14
32 -16 23 -2 -3 5 0 7 9 4 8 -3 21 -2 28 2 6 4 26 9 42 11 17 2 34 9 38 16 5
8 8 6 8 -8 1 -18 1 -19 11 -3 6 11 22 18 39 18 15 0 30 6 33 13 3 9 9 9 24 0
16 -9 23 -9 32 0 9 9 14 8 21 -3 8 -12 10 -11 10 6 0 12 6 27 14 33 12 10 17
8 25 -8 10 -18 13 -19 41 -4 17 8 27 19 24 25 -4 6 -2 8 4 4 6 -3 16 -1 24 6
20 19 40 21 49 6 5 -7 9 -8 9 -2 0 5 15 21 33 34 17 13 26 16 19 7 -8 -9 -11
-21 -7 -27 10 -16 35 7 35 32 0 10 5 16 10 13 13 -8 52 4 46 14 -3 4 1 8 9 8
8 0 11 -5 8 -10 -3 -5 0 -7 8 -5 8 3 13 12 11 19 -2 8 0 11 3 7 4 -4 17 -3 28
3 13 7 17 7 13 1 -3 -6 -1 -14 5 -18 7 -4 10 -3 6 2 -3 5 1 18 9 29 14 18 14
18 14 -4 l0 -22 50 27 c28 15 50 31 50 36 0 5 5 6 10 3 6 -3 13 1 16 9 7 19
25 22 21 4 -1 -6 7 -14 18 -16 17 -4 18 -2 6 12 -10 11 -10 16 -2 16 7 0 10 4
7 9 -3 4 5 6 19 4 16 -4 32 3 48 19 18 18 29 23 41 16 11 -6 18 -5 22 6 3 9
10 14 14 11 4 -3 11 2 14 11 3 8 10 13 15 9 6 -3 15 4 21 15 10 18 14 19 28 8
12 -10 14 -10 8 0 -4 7 -2 12 8 12 8 0 17 6 19 13 4 10 6 10 6 0 1 -18 21 -16
21 2 0 13 -101 15 -845 15 -823 0 -847 1 -885 20 -21 11 -49 34 -62 52 l-23
33 -3 1037 -2 1037 -328 3 c-296 3 -331 5 -365 22 -72 36 -106 132 -73 210 11
25 294 269 1157 997 629 529 1155 969 1169 976 32 17 108 17 141 -1 22 -11
746 -614 821 -684 l27 -25 10 25 c13 35 75 86 113 93 18 3 135 5 259 3 l226
-3 35 -27 c66 -50 68 -62 68 -390 l0 -295 52 -44 c297 -251 622 -518 625 -515
3 2 6 10 7 18 14 69 19 88 25 88 4 0 6 12 5 28 -1 18 7 32 23 43 21 14 22 17
8 23 -9 3 -13 10 -10 16 4 6 11 8 16 5 5 -4 9 -1 9 4 0 6 -5 11 -11 11 -5 0
-8 4 -5 9 4 5 0 12 -6 15 -7 3 -4 4 8 1 18 -5 21 -1 19 25 -1 21 3 30 14 30
13 0 13 2 2 9 -8 5 -9 11 -3 15 6 3 8 15 5 26 -3 12 -10 17 -17 13 -6 -4 -3 5
7 20 9 14 17 33 17 42 0 18 11 19 30 3 12 -11 12 -10 4 2 -6 8 -10 32 -9 52 1
20 -1 35 -5 33 -3 -2 -6 7 -6 21 0 17 4 23 13 19 22 -8 -122 264 -204 387
-437 654 -1122 1080 -1901 1183 -140 18 -409 26 -542 15z m145 -4800 c-3 -5
-12 -10 -18 -10 -7 0 -6 4 3 10 19 12 23 12 15 0z m-185 -90 c0 -5 -5 -10 -11
-10 -5 0 -7 5 -4 10 3 6 8 10 11 10 2 0 4 -4 4 -10z m-381 -133 c-2 -1 -12 -9
-22 -16 -15 -12 -17 -12 -11 3 3 9 13 16 22 16 8 0 13 -1 11 -3z"/>
<path d="M2615 3053 c-265 -16 -506 -78 -719 -184 -187 -93 -396 -261 -409
-328 -14 -68 44 -141 113 -141 39 0 56 11 180 115 442 370 1258 408 1764 82
33 -22 94 -66 134 -98 83 -67 106 -76 156 -59 49 16 76 53 76 104 0 54 -20 83
-106 154 -186 154 -442 270 -710 322 -89 17 -370 43 -414 38 -8 -1 -37 -3 -65
-5z"/>
<path d="M4330 2430 c0 -300 3 -460 10 -460 13 0 45 32 53 53 3 9 13 17 21 17
8 0 18 5 22 12 5 7 3 8 -6 3 -9 -5 -11 -4 -6 4 4 6 3 18 -3 25 -8 9 -7 13 4
13 8 0 12 -4 9 -8 -2 -4 1 -11 7 -15 9 -5 10 2 6 24 -6 31 6 44 17 20 3 -7 4
-4 1 7 -5 23 29 70 44 61 5 -4 12 -2 15 3 4 5 1 13 -5 17 -8 5 -9 3 -4 -6 5
-9 4 -11 -4 -6 -15 9 -4 27 12 20 15 -5 45 53 41 79 -2 17 -1 18 16 2 16 -14
18 -14 24 0 3 9 2 13 -3 10 -21 -12 -20 15 1 39 53 58 61 69 44 63 -9 -4 -16
-2 -16 2 0 5 5 11 10 13 6 2 12 12 12 24 1 11 10 21 19 21 29 3 58 38 47 57
-6 11 -6 22 1 30 6 7 7 17 3 21 -4 5 1 5 11 2 15 -6 16 -3 7 12 -8 16 -7 18
13 14 19 -4 20 -3 7 9 -14 12 -14 15 1 30 10 9 20 14 22 12 3 -3 5 1 4 8 -1
32 4 49 13 43 7 -4 9 7 6 30 -4 31 -1 38 20 47 13 6 23 18 22 27 -2 10 4 15
15 15 12 -1 15 2 9 10 -5 6 -8 21 -7 34 l2 22 -269 0 -268 0 0 -460z m369 64
c-6 -8 -17 -14 -23 -14 -6 0 -3 7 6 14 10 7 14 17 10 21 -4 5 -1 5 6 1 10 -6
10 -11 1 -22z m-165 -250 c3 -8 2 -12 -4 -9 -6 3 -10 10 -10 16 0 14 7 11 14
-7z"/>
<path d="M4813 2755 c0 -8 4 -12 9 -9 5 3 6 10 3 15 -9 13 -12 11 -12 -6z"/>
<path d="M2495 2595 c-200 -36 -377 -112 -512 -219 -97 -77 -114 -100 -115
-155 -1 -52 23 -88 70 -108 50 -21 92 -6 171 62 103 87 242 151 406 187 36 7
121 12 210 12 128 -1 164 -5 249 -27 124 -33 242 -91 325 -158 91 -74 147 -82
201 -28 25 26 30 38 30 80 0 46 -3 53 -47 95 -130 127 -328 219 -557 259 -107
18 -332 19 -431 0z"/>
<path d="M2620 2199 c-156 -16 -289 -83 -371 -185 -74 -93 3 -218 116 -190 13
3 48 27 77 53 68 61 121 82 216 90 121 9 229 -24 320 -96 46 -37 92 -48 132
-31 44 18 70 60 70 111 0 39 -5 48 -54 95 -114 110 -319 172 -506 153z"/>
<path d="M4337 1953 c-10 -9 -9 -23 1 -23 5 0 9 7 9 15 0 17 -1 18 -10 8z"/>
<path d="M2635 1762 c-43 -15 -87 -48 -113 -86 -24 -35 -27 -49 -27 -117 0
-70 3 -81 30 -120 45 -64 104 -91 187 -87 55 3 75 9 109 33 63 45 91 104 87
185 -6 115 -80 190 -192 196 -33 2 -70 0 -81 -4z"/>
<path d="M2295 430 c-3 -5 -1 -10 4 -10 6 0 11 5 11 10 0 6 -2 10 -4 10 -3 0
-8 -4 -11 -10z"/>
<path d="M2320 430 c0 -5 5 -10 10 -10 6 0 10 5 10 10 0 6 -4 10 -10 10 -5 0
-10 -4 -10 -10z"/>
</g>
</svg>
